# xmcd
#
# Track frame offsets:
#	150
#	24775
#	44688
#	60794
#	76773
#	100959
#	116593
#	131038
#	159936
#	180850
#	198151
#	214492
#	232058
#	250053
#	268197
#	286942
#
# Disc length: 4182
#
# Revision: 2
# Processed by: cddbd v1.5.1PL0 Copyright (c) Steve Scherf et al.
# Submitted via: Audion 3.0.2 (http://www.panic.com/audion/)
# Normalized: r0:TDELIM( - ),TSWAP
#
DISCID=d3105410
DTITLE=Various Artist - Various Artists 1
DYEAR=1900
DGENRE=
TTITLE0=Eminem - Lose Yourself
TTITLE1=Missy Elliott - Work It
TTITLE2=J. Lo - Play
TTITLE3=50 Cent - Wangster
TTITLE4=P. Diddy - Pass the Courvoisier
TTITLE5=Fabolous - Young'n (Holler Back)
TTITLE6=J. Lo - Jenny From the Black
TTITLE7=Limp Bizkit - Rollin'
TTITLE8=Ludacris - Roll Out
TTITLE9=Nelly - Hot In Here
TTITLE10=Busta Rhymes and Violator - What It Is Right Now
TTITLE11=J. Lo - Ain't It Funny
TTITLE12=Snoop Dogg - From Tha Chuuurch to Tha Palace
TTITLE13=Missy Elliott - Get Ur Freak On
TTITLE14=e40 - I Got Five On It
TTITLE15=Janet Jackson/Michael Jackson - Son of a Gun
EXTD=
EXTT0=
EXTT1=
EXTT2=
EXTT3=
EXTT4=
EXTT5=
EXTT6=
EXTT7=
EXTT8=
EXTT9=
EXTT10=
EXTT11=
EXTT12=
EXTT13=
EXTT14=
EXTT15=
PLAYORDER=
